<svg width="1024" height="1024" viewBox="0 0 1024 1024" fill="none" xmlns="http://www.w3.org/2000/svg">
<rect width="1024" height="1024" rx="62.3554" fill="white"/>
<path d="M364.131 292.825L681.912 638.473L597.649 730.125L279.868 384.477L364.131 292.825Z" fill="#31424E"/>
<ellipse cx="753.02" cy="788.06" rx="186.291" ry="196.834" fill="white"/>
<ellipse cx="752.886" cy="788.205" rx="167.249" ry="176.702" fill="#209CEE"/>
<ellipse cx="242.084" cy="242.458" rx="167.249" ry="176.702" fill="#31424E"/>
<path d="M726.457 813.407C727.776 812.284 729.167 811.723 730.632 811.723C732.878 811.723 734.172 812.04 734.514 812.675C736.418 816.483 737.37 822.782 737.37 831.571C737.37 837.675 736.687 842.094 735.32 844.828C734.88 845.609 734.416 846 733.928 846H653.069C647.258 846 644.353 844.267 644.353 840.8C644.353 838.944 644.744 837.528 645.525 836.552C647.185 837.04 648.796 837.284 650.359 837.284C651.921 837.284 653.264 837.162 654.387 836.918C655.51 836.674 656.56 836.161 657.536 835.38C659.88 833.573 661.052 830.521 661.052 826.225V752.03C661.052 747.782 659.343 745.072 655.925 743.9C654.949 743.559 653.923 743.266 652.849 743.021C651.824 742.729 650.823 742.46 649.846 742.216C648.918 741.923 648.088 741.605 647.356 741.264C645.696 740.385 644.866 739.188 644.866 737.675C644.866 735.673 645.256 734.232 646.037 733.354C646.916 733.598 647.795 733.72 648.674 733.72H723.601C728.093 733.72 730.901 734.135 732.024 734.965C734.075 736.43 735.1 739.652 735.1 744.633C735.1 749.418 734.685 753.324 733.855 756.352C733.074 759.379 732.512 761.186 732.17 761.771C731.682 762.65 730.73 763.09 729.314 763.09C727.263 763.09 725.847 762.846 725.066 762.357C724.333 761.82 723.943 761.43 723.894 761.186C723.259 754.203 722.161 749.76 720.598 747.855C719.036 745.902 717.18 744.584 715.032 743.9C712.932 743.168 710.173 742.802 706.755 742.802H690.422C685.246 742.802 682.073 743.314 680.901 744.34C679.778 745.365 679.07 746.562 678.777 747.929C678.484 749.247 678.337 750.956 678.337 753.056V784.257L682.659 784.33C693.45 784.33 703.459 783.378 712.688 781.474C713.371 781.815 713.982 782.792 714.519 784.403C715.056 785.966 715.325 787.528 715.325 789.091C715.325 791.728 714.885 794.022 714.006 795.976C710.784 796.269 707.073 796.415 702.873 796.415C698.674 796.415 690.495 795.731 678.337 794.364V827.396C678.337 831.059 679.314 833.524 681.267 834.794C682.927 835.868 685.906 836.405 690.202 836.405L701.262 836.112C711.955 835.722 718.913 834.232 722.136 831.645C723.943 830.18 725.139 828.251 725.725 825.858C726.311 823.466 726.604 821.073 726.604 818.681C726.604 816.239 726.555 814.481 726.457 813.407ZM776.189 868.412C771.892 868.412 769.744 866.312 769.744 862.113C769.744 857.768 773.723 854.472 781.682 852.226C802.971 846.366 818.181 839.164 827.312 830.619C837.273 821.244 842.253 808.329 842.253 791.874C842.253 782.987 841.423 776.005 839.763 770.927C838.152 765.849 836.418 761.796 834.563 758.769C832.756 755.692 830.51 753.031 827.825 750.785C822.112 746.098 814.885 743.754 806.145 743.754C789.104 743.754 778.093 752.421 773.113 769.755C771.452 775.663 770.622 782.67 770.622 790.775C770.622 809.818 775.554 822.318 785.417 828.275C787.81 829.74 790.642 830.717 793.913 831.205C794.939 831.498 795.696 832.206 796.184 833.329C797.063 835.331 797.209 836.649 796.623 837.284C795.403 838.603 792.888 839.213 789.079 839.115C785.32 838.969 781.78 838.334 778.459 837.211C775.139 836.088 772.087 834.525 769.304 832.523C766.521 830.521 764.055 828.178 761.907 825.492C759.758 822.807 757.927 819.828 756.413 816.557C753.337 809.916 751.799 802.812 751.799 795.243C751.799 787.675 752.58 780.961 754.143 775.102C755.754 769.193 757.927 763.944 760.661 759.354C763.445 754.716 766.692 750.712 770.403 747.343C774.162 743.925 778.191 741.117 782.488 738.92C790.935 734.525 799.358 732.328 807.756 732.328C816.155 732.328 823.454 733.573 829.656 736.063C835.906 738.505 841.326 742.045 845.915 746.684C855.876 756.693 860.857 769.926 860.857 786.381C860.857 810.307 851.97 828.52 834.197 841.02C826.824 846.146 818.059 850.248 807.903 853.324L814.861 856.107C823.699 859.525 830.486 861.234 835.222 861.234C846.404 861.234 854.167 858.5 858.513 853.031C860.173 852.934 861.418 853.471 862.248 854.643C863.078 855.863 863.494 857.45 863.494 859.403C863.494 861.356 862.834 863.432 861.516 865.629C860.198 867.875 858.342 869.828 855.95 871.488C850.774 875.15 844.328 876.981 836.614 876.981C831.731 876.981 826.946 876.078 822.258 874.271C817.571 872.514 813.884 871 811.199 869.73L803.288 866.288C797.478 863.798 793.279 862.553 790.691 862.553C788.152 862.553 786.15 862.724 784.685 863.065C783.22 863.407 781.975 863.847 780.95 864.384C779.631 865.067 778.044 866.41 776.189 868.412Z" fill="white"/>
<rect width="186.213" height="168.585" transform="matrix(0.676808 0.73616 -0.676808 0.73616 174.82 50.4033)" fill="white"/>
</svg>
