<svg width="250" height="42" viewBox="0 0 250 42" fill="none" xmlns="http://www.w3.org/2000/svg">
<rect y="2" width="250" height="40" rx="5" fill="white"/>
<path d="M128.386 20V7.616H134.236V8.804H129.736V13.142H133.642V14.33H129.736V18.812H134.236V20H128.386ZM143.553 22.016V22.07H142.113L141.015 20.054C140.559 20.114 140.079 20.144 139.575 20.144C138.399 20.144 137.559 19.982 137.055 19.658C136.551 19.334 136.227 18.764 136.083 17.948C135.939 17.12 135.867 15.74 135.867 13.808C135.867 11.876 135.939 10.502 136.083 9.686C136.227 8.858 136.551 8.282 137.055 7.958C137.559 7.634 138.399 7.472 139.575 7.472C140.751 7.472 141.591 7.634 142.095 7.958C142.599 8.282 142.923 8.858 143.067 9.686C143.211 10.502 143.283 11.876 143.283 13.808C143.283 15.068 143.259 16.058 143.211 16.778C143.163 17.486 143.061 18.074 142.905 18.542C142.749 18.998 142.509 19.346 142.185 19.586L143.553 22.016ZM139.575 18.956C139.971 18.956 140.247 18.95 140.403 18.938L138.837 16.076H140.223L141.501 18.344C141.669 18.056 141.777 17.582 141.825 16.922C141.885 16.262 141.915 15.224 141.915 13.808C141.915 12.08 141.867 10.88 141.771 10.208C141.675 9.536 141.477 9.11 141.177 8.93C140.877 8.75 140.343 8.66 139.575 8.66C138.807 8.66 138.273 8.75 137.973 8.93C137.673 9.11 137.475 9.536 137.379 10.208C137.283 10.88 137.235 12.08 137.235 13.808C137.235 15.536 137.283 16.736 137.379 17.408C137.475 18.08 137.673 18.506 137.973 18.686C138.273 18.866 138.807 18.956 139.575 18.956ZM155.954 20L153.974 9.938H153.902L151.94 20H150.248L147.944 7.616H149.33L151.112 18.038H151.202L153.2 7.616H154.712L156.728 18.038H156.836L158.582 7.616H159.932L157.628 20H155.954ZM166.433 15.824H161.717C161.717 16.796 161.759 17.498 161.843 17.93C161.939 18.35 162.131 18.644 162.419 18.812C162.719 18.968 163.217 19.046 163.913 19.046C164.705 19.046 165.461 18.98 166.181 18.848V19.892C165.905 19.964 165.527 20.024 165.047 20.072C164.567 20.12 164.105 20.144 163.661 20.144C162.689 20.144 161.981 20.006 161.537 19.73C161.093 19.442 160.799 18.98 160.655 18.344C160.511 17.708 160.439 16.736 160.439 15.428C160.439 14.12 160.499 13.154 160.619 12.53C160.739 11.894 161.015 11.426 161.447 11.126C161.891 10.826 162.599 10.676 163.571 10.676C164.483 10.676 165.137 10.82 165.533 11.108C165.929 11.396 166.175 11.846 166.271 12.458C166.379 13.07 166.433 14.054 166.433 15.41V15.824ZM163.553 11.756C162.989 11.756 162.581 11.828 162.329 11.972C162.077 12.116 161.909 12.398 161.825 12.818C161.753 13.226 161.717 13.91 161.717 14.87H165.209V14.654C165.209 13.778 165.161 13.142 165.065 12.746C164.969 12.338 164.807 12.074 164.579 11.954C164.363 11.822 164.021 11.756 163.553 11.756ZM171.918 20.144C171.378 20.144 170.916 20.048 170.532 19.856C170.16 19.664 169.89 19.292 169.722 18.74H169.614L169.542 20H168.426V6.626H169.704V11.936H169.794C169.962 11.48 170.22 11.156 170.568 10.964C170.916 10.772 171.372 10.676 171.936 10.676C172.644 10.676 173.184 10.814 173.556 11.09C173.928 11.354 174.186 11.822 174.33 12.494C174.474 13.154 174.546 14.126 174.546 15.41C174.546 16.694 174.468 17.672 174.312 18.344C174.168 19.016 173.91 19.484 173.538 19.748C173.166 20.012 172.626 20.144 171.918 20.144ZM171.468 18.992C172.032 18.992 172.428 18.914 172.656 18.758C172.896 18.602 173.058 18.284 173.142 17.804C173.226 17.324 173.268 16.526 173.268 15.41C173.268 14.294 173.226 13.496 173.142 13.016C173.058 12.536 172.896 12.218 172.656 12.062C172.428 11.906 172.032 11.828 171.468 11.828C171.036 11.828 170.694 11.912 170.442 12.08C170.19 12.248 170.016 12.512 169.92 12.872C169.836 13.172 169.776 13.52 169.74 13.916C169.716 14.312 169.704 14.81 169.704 15.41C169.704 16.022 169.716 16.514 169.74 16.886C169.764 17.258 169.818 17.594 169.902 17.894C169.998 18.29 170.172 18.572 170.424 18.74C170.676 18.908 171.024 18.992 171.468 18.992ZM182.908 20.144C181.792 20.144 180.766 20.066 179.83 19.91V18.74C180.25 18.8 180.712 18.854 181.216 18.902C181.72 18.938 182.146 18.956 182.494 18.956C182.974 18.956 183.352 18.926 183.628 18.866C183.916 18.794 184.15 18.674 184.33 18.506C184.498 18.35 184.606 18.122 184.654 17.822C184.714 17.522 184.744 17.12 184.744 16.616C184.744 15.956 184.72 15.494 184.672 15.23C184.624 14.966 184.51 14.78 184.33 14.672C184.162 14.552 183.856 14.456 183.412 14.384L181.324 14.06C180.82 13.976 180.442 13.808 180.19 13.556C179.938 13.292 179.77 12.956 179.686 12.548C179.614 12.14 179.578 11.594 179.578 10.91C179.578 9.662 179.842 8.78 180.37 8.264C180.898 7.736 181.744 7.472 182.908 7.472C184.024 7.472 184.936 7.568 185.644 7.76V8.876C184.84 8.732 184.03 8.66 183.214 8.66C182.698 8.66 182.29 8.708 181.99 8.804C181.69 8.888 181.462 9.02 181.306 9.2C181.15 9.38 181.048 9.602 181 9.866C180.952 10.13 180.928 10.466 180.928 10.874C180.928 11.426 180.952 11.828 181 12.08C181.048 12.32 181.144 12.488 181.288 12.584C181.432 12.68 181.672 12.758 182.008 12.818L184.024 13.142C184.528 13.226 184.924 13.352 185.212 13.52C185.5 13.688 185.722 13.976 185.878 14.384C186.022 14.732 186.094 15.422 186.094 16.454C186.094 17.378 185.992 18.104 185.788 18.632C185.596 19.16 185.266 19.544 184.798 19.784C184.342 20.024 183.712 20.144 182.908 20.144ZM190.799 20.144C189.827 20.144 189.125 20.018 188.693 19.766C188.273 19.514 187.997 19.076 187.865 18.452C187.745 17.828 187.685 16.814 187.685 15.41C187.685 14.006 187.745 12.992 187.865 12.368C187.997 11.744 188.273 11.306 188.693 11.054C189.125 10.802 189.827 10.676 190.799 10.676C191.771 10.676 192.467 10.802 192.887 11.054C193.319 11.306 193.595 11.744 193.715 12.368C193.835 12.992 193.895 14.006 193.895 15.41C193.895 16.814 193.835 17.828 193.715 18.452C193.595 19.076 193.319 19.514 192.887 19.766C192.467 20.018 191.771 20.144 190.799 20.144ZM190.799 19.046C191.399 19.046 191.819 18.962 192.059 18.794C192.311 18.626 192.467 18.314 192.527 17.858C192.587 17.402 192.617 16.586 192.617 15.41C192.617 14.234 192.587 13.418 192.527 12.962C192.467 12.506 192.311 12.194 192.059 12.026C191.819 11.858 191.399 11.774 190.799 11.774C190.187 11.774 189.761 11.858 189.521 12.026C189.281 12.194 189.125 12.512 189.053 12.98C188.993 13.436 188.963 14.246 188.963 15.41C188.963 16.574 188.993 17.39 189.053 17.858C189.125 18.314 189.281 18.626 189.521 18.794C189.761 18.962 190.187 19.046 190.799 19.046ZM195.883 10.82H196.999L197.071 12.53H197.179C197.335 11.822 197.605 11.336 197.989 11.072C198.385 10.808 198.907 10.676 199.555 10.676V11.972C198.931 11.972 198.445 12.104 198.097 12.368C197.749 12.632 197.503 13.028 197.359 13.556C197.227 14.072 197.161 14.768 197.161 15.644V20H195.883V10.82ZM201.644 20V11.918H200.312V10.82H201.644V8.156H202.922V10.82H204.506V11.918H202.922V20H201.644Z" fill="black"/>
<path d="M131.643 36.82C131.379 36.916 131.037 36.994 130.617 37.054C130.197 37.114 129.807 37.144 129.447 37.144C128.283 37.144 127.425 36.952 126.873 36.568C126.333 36.184 125.973 35.56 125.793 34.696C125.625 33.832 125.541 32.536 125.541 30.808C125.541 29.092 125.631 27.802 125.811 26.938C125.991 26.074 126.357 25.45 126.909 25.066C127.461 24.67 128.307 24.472 129.447 24.472C129.855 24.472 130.257 24.502 130.653 24.562C131.061 24.622 131.379 24.694 131.607 24.778V27.046C130.947 26.974 130.419 26.938 130.023 26.938C129.471 26.938 129.093 27.016 128.889 27.172C128.697 27.316 128.571 27.628 128.511 28.108C128.463 28.576 128.439 29.476 128.439 30.808C128.439 32.14 128.463 33.046 128.511 33.526C128.571 33.994 128.697 34.306 128.889 34.462C129.093 34.606 129.471 34.678 130.023 34.678C130.671 34.678 131.211 34.642 131.643 34.57V36.82ZM136.096 37.144C135.028 37.144 134.254 37.012 133.774 36.748C133.306 36.484 133 36.04 132.856 35.416C132.724 34.792 132.658 33.79 132.658 32.41C132.658 31.03 132.724 30.028 132.856 29.404C133 28.78 133.306 28.336 133.774 28.072C134.254 27.808 135.028 27.676 136.096 27.676C137.164 27.676 137.932 27.808 138.4 28.072C138.868 28.336 139.168 28.78 139.3 29.404C139.444 30.028 139.516 31.03 139.516 32.41C139.516 33.79 139.444 34.792 139.3 35.416C139.168 36.04 138.868 36.484 138.4 36.748C137.932 37.012 137.164 37.144 136.096 37.144ZM136.096 34.966C136.36 34.966 136.534 34.924 136.618 34.84C136.714 34.744 136.774 34.534 136.798 34.21C136.834 33.886 136.852 33.286 136.852 32.41C136.852 31.534 136.834 30.934 136.798 30.61C136.774 30.286 136.714 30.082 136.618 29.998C136.534 29.902 136.36 29.854 136.096 29.854C135.832 29.854 135.652 29.902 135.556 29.998C135.46 30.082 135.4 30.286 135.376 30.61C135.352 30.922 135.34 31.522 135.34 32.41C135.34 33.298 135.352 33.904 135.376 34.228C135.4 34.54 135.46 34.744 135.556 34.84C135.652 34.924 135.832 34.966 136.096 34.966ZM144.834 32.068C144.834 31.36 144.822 30.88 144.798 30.628C144.774 30.364 144.72 30.196 144.636 30.124C144.552 30.052 144.39 30.016 144.15 30.016C143.91 30.016 143.742 30.064 143.646 30.16C143.562 30.256 143.508 30.454 143.484 30.754C143.46 31.054 143.448 31.588 143.448 32.356V37H140.766V27.82H143.34L143.412 28.882H143.556C143.868 28.078 144.522 27.676 145.518 27.676C146.082 27.676 146.508 27.79 146.796 28.018C147.084 28.246 147.276 28.588 147.372 29.044C147.468 29.5 147.516 30.13 147.516 30.934V37H144.834V32.068ZM149.534 29.998H148.436V27.82H149.534V27.496C149.534 26.236 149.63 25.348 149.822 24.832C150.026 24.316 150.398 23.986 150.938 23.842C151.478 23.698 152.402 23.626 153.71 23.626V25.552C153.218 25.552 152.876 25.582 152.684 25.642C152.492 25.69 152.366 25.804 152.306 25.984C152.246 26.164 152.216 26.476 152.216 26.92V27.82H153.71V29.998H152.216V37H149.534V29.998ZM154.754 25.984V23.626H157.454V25.984H154.754ZM154.754 37V27.82H157.454V37H154.754ZM161.949 40.69C161.493 40.69 161.019 40.672 160.527 40.636C160.035 40.6 159.627 40.552 159.303 40.492V38.512L161.283 38.53C161.823 38.53 162.189 38.488 162.381 38.404C162.585 38.332 162.711 38.176 162.759 37.936C162.819 37.708 162.849 37.276 162.849 36.64V35.83H162.705C162.561 36.214 162.339 36.49 162.039 36.658C161.751 36.826 161.379 36.91 160.923 36.91C160.347 36.91 159.897 36.772 159.573 36.496C159.261 36.208 159.033 35.734 158.889 35.074C158.757 34.414 158.691 33.484 158.691 32.284C158.691 31.06 158.763 30.118 158.907 29.458C159.051 28.798 159.279 28.336 159.591 28.072C159.915 27.808 160.365 27.676 160.941 27.676C161.349 27.676 161.715 27.766 162.039 27.946C162.363 28.126 162.597 28.432 162.741 28.864H162.903L162.975 27.82H165.531V35.956C165.531 37.192 165.465 38.122 165.333 38.746C165.201 39.37 164.877 39.85 164.361 40.186C163.857 40.522 163.053 40.69 161.949 40.69ZM162.111 34.588C162.327 34.588 162.477 34.558 162.561 34.498C162.657 34.438 162.729 34.306 162.777 34.102C162.813 33.958 162.831 33.73 162.831 33.418C162.843 33.094 162.849 32.722 162.849 32.302C162.849 31.402 162.831 30.844 162.795 30.628C162.747 30.376 162.675 30.214 162.579 30.142C162.483 30.058 162.327 30.016 162.111 30.016C161.859 30.016 161.685 30.058 161.589 30.142C161.493 30.214 161.433 30.394 161.409 30.682C161.385 30.958 161.373 31.498 161.373 32.302C161.373 33.094 161.385 33.634 161.409 33.922C161.445 34.21 161.505 34.396 161.589 34.48C161.685 34.552 161.859 34.588 162.111 34.588ZM171.061 35.938H170.899C170.587 36.742 169.939 37.144 168.955 37.144C168.391 37.144 167.959 37.03 167.659 36.802C167.371 36.574 167.179 36.238 167.083 35.794C166.987 35.338 166.939 34.702 166.939 33.886V27.82H169.621V32.752C169.621 33.448 169.633 33.928 169.657 34.192C169.693 34.456 169.753 34.624 169.837 34.696C169.921 34.768 170.077 34.804 170.305 34.804C170.545 34.804 170.707 34.756 170.791 34.66C170.887 34.564 170.947 34.372 170.971 34.084C170.995 33.796 171.007 33.256 171.007 32.464V27.82H173.689V37H171.133L171.061 35.938ZM175.131 27.82H177.705L177.777 29.296H177.921C178.113 28.696 178.371 28.276 178.695 28.036C179.019 27.796 179.457 27.676 180.009 27.676V30.394C179.481 30.394 179.061 30.46 178.749 30.592C178.437 30.724 178.203 30.976 178.047 31.348C177.891 31.708 177.813 32.23 177.813 32.914V37H175.131V27.82ZM182.519 37.144C181.775 37.144 181.247 36.916 180.935 36.46C180.623 36.004 180.467 35.296 180.467 34.336C180.467 33.628 180.539 33.07 180.683 32.662C180.827 32.254 181.073 31.96 181.421 31.78C181.769 31.6 182.255 31.51 182.879 31.51C183.323 31.51 183.845 31.534 184.445 31.582V31.186C184.445 30.742 184.409 30.436 184.337 30.268C184.277 30.088 184.145 29.974 183.941 29.926C183.749 29.878 183.401 29.854 182.897 29.854C182.405 29.854 181.739 29.884 180.899 29.944V27.928C181.967 27.76 182.915 27.676 183.743 27.676C184.691 27.676 185.405 27.802 185.885 28.054C186.365 28.294 186.689 28.678 186.857 29.206C187.037 29.722 187.127 30.46 187.127 31.42V37H184.553L184.481 35.956H184.319C184.163 36.364 183.923 36.664 183.599 36.856C183.287 37.048 182.927 37.144 182.519 37.144ZM183.689 34.912C183.857 34.912 183.989 34.894 184.085 34.858C184.193 34.81 184.277 34.726 184.337 34.606C184.409 34.438 184.445 34.102 184.445 33.598V33.13H183.671C183.407 33.13 183.233 33.19 183.149 33.31C183.065 33.43 183.023 33.688 183.023 34.084C183.023 34.42 183.059 34.642 183.131 34.75C183.203 34.858 183.389 34.912 183.689 34.912ZM189.049 37V29.998H187.969V27.82H189.049V25.156H191.749V27.82H193.171V29.998H191.749V37H189.049ZM197.285 37.144C196.217 37.144 195.443 37.012 194.963 36.748C194.495 36.484 194.189 36.04 194.045 35.416C193.913 34.792 193.847 33.79 193.847 32.41C193.847 31.03 193.913 30.028 194.045 29.404C194.189 28.78 194.495 28.336 194.963 28.072C195.443 27.808 196.217 27.676 197.285 27.676C198.353 27.676 199.121 27.808 199.589 28.072C200.057 28.336 200.357 28.78 200.489 29.404C200.633 30.028 200.705 31.03 200.705 32.41C200.705 33.79 200.633 34.792 200.489 35.416C200.357 36.04 200.057 36.484 199.589 36.748C199.121 37.012 198.353 37.144 197.285 37.144ZM197.285 34.966C197.549 34.966 197.723 34.924 197.807 34.84C197.903 34.744 197.963 34.534 197.987 34.21C198.023 33.886 198.041 33.286 198.041 32.41C198.041 31.534 198.023 30.934 197.987 30.61C197.963 30.286 197.903 30.082 197.807 29.998C197.723 29.902 197.549 29.854 197.285 29.854C197.021 29.854 196.841 29.902 196.745 29.998C196.649 30.082 196.589 30.286 196.565 30.61C196.541 30.922 196.529 31.522 196.529 32.41C196.529 33.298 196.541 33.904 196.565 34.228C196.589 34.54 196.649 34.744 196.745 34.84C196.841 34.924 197.021 34.966 197.285 34.966ZM201.955 27.82H204.529L204.601 29.296H204.745C204.937 28.696 205.195 28.276 205.519 28.036C205.843 27.796 206.281 27.676 206.833 27.676V30.394C206.305 30.394 205.885 30.46 205.573 30.592C205.261 30.724 205.027 30.976 204.871 31.348C204.715 31.708 204.637 32.23 204.637 32.914V37H201.955V27.82Z" fill="black"/>
<rect x="52.5" y="10.5" width="29" height="11" fill="#90EE90" stroke="black"/>
<rect x="37.5" y="23.5" width="29" height="11" fill="#C4C4C4" stroke="black"/>
<rect x="21.5" y="10.5" width="29" height="11" fill="#FFB6C1" stroke="#333333"/>
</svg>
